<?xml version="1.0" encoding="UTF-8" standalone="no"?>
<!-- Created with Inkscape (http://www.inkscape.org/) -->

<svg
   xmlns:dc="http://purl.org/dc/elements/1.1/"
   xmlns:cc="http://creativecommons.org/ns#"
   xmlns:rdf="http://www.w3.org/1999/02/22-rdf-syntax-ns#"
   xmlns:svg="http://www.w3.org/2000/svg"
   xmlns="http://www.w3.org/2000/svg"
   xmlns:sodipodi="http://sodipodi.sourceforge.net/DTD/sodipodi-0.dtd"
   xmlns:inkscape="http://www.inkscape.org/namespaces/inkscape"
   width="24"
   height="24"
   viewBox="0 0 6.3499998 6.3499998"
   version="1.1"
   id="svg8"
   inkscape:export-filename="D:\Temp\ic_delete.png"
   inkscape:export-xdpi="192"
   inkscape:export-ydpi="192"
   inkscape:version="0.92.4 (5da689c313, 2019-01-14)"
   sodipodi:docname="ic_delete.svg">
  <defs
     id="defs2" />
  <sodipodi:namedview
     id="base"
     pagecolor="#ffffff"
     bordercolor="#666666"
     borderopacity="1.0"
     inkscape:pageopacity="0.0"
     inkscape:pageshadow="2"
     inkscape:zoom="28.963094"
     inkscape:cx="7.588347"
     inkscape:cy="10.993096"
     inkscape:document-units="mm"
     inkscape:current-layer="layer1"
     showgrid="true"
     inkscape:window-width="1920"
     inkscape:window-height="1013"
     inkscape:window-x="-9"
     inkscape:window-y="-9"
     inkscape:window-maximized="1"
     units="px"
     inkscape:snap-to-guides="true"
     inkscape:pagecheckerboard="true"
     showguides="true">
    <inkscape:grid
       type="xygrid"
       id="grid820"
       visible="true"
       spacingx="0.13229166"
       spacingy="0.13229166"
       empspacing="10"
       enabled="true" />
  </sodipodi:namedview>
  <metadata
     id="metadata5">
    <rdf:RDF>
      <cc:Work
         rdf:about="">
        <dc:format>image/svg+xml</dc:format>
        <dc:type
           rdf:resource="http://purl.org/dc/dcmitype/StillImage" />
        <dc:title />
      </cc:Work>
    </rdf:RDF>
  </metadata>
  <g
     inkscape:label="Layer 1"
     inkscape:groupmode="layer"
     id="layer1"
     transform="translate(0,-290.65)">
    <path
       style="fill:#fffdff;fill-opacity:0.80000001;stroke:none;stroke-width:0.26458332px;stroke-linecap:butt;stroke-linejoin:miter;stroke-opacity:1"
       d="m 2.499672,291.70886 c -0.090625,0 -0.1698955,0.0544 -0.210413,0.11654 -0.040517,0.0621 -0.054752,0.13203 -0.054752,0.20098 0,0.002 8.844e-4,0.004 9.019e-4,0.006 -0.7187188,0.0161 -0.7339576,0.0867 -0.7339576,0.4037 v 0.2045 h 3.1960179 v -0.2045 c 0,-0.31339 -0.01468,-0.38611 -0.7330516,-0.40326 2.86e-5,-0.002 9.02e-4,-0.004 9.02e-4,-0.007 0,-0.0689 -0.016044,-0.13874 -0.056563,-0.20098 -0.040517,-0.0621 -0.1197876,-0.11654 -0.2104129,-0.11654 -0.5992801,10e-6 -0.599395,10e-6 -1.1986752,0 z m 0,0.22649 c 0.5992801,10e-6 0.5993951,10e-6 1.1986751,0 0.00926,0 0.00596,-0.003 0.015386,0.0114 0.00942,0.0144 0.019005,0.0463 0.019005,0.0796 0,0.002 -8.34e-4,0.003 -9.018e-4,0.005 -0.1878253,-0.002 -0.3588182,-0.005 -0.6321439,-0.005 -0.2731294,0 -0.4439452,0.002 -0.6316913,0.004 -5.45e-5,-0.002 -9.02e-4,-0.003 -9.02e-4,-0.005 0,-0.0334 0.00958,-0.0652 0.019005,-0.0796 0.00942,-0.0144 0.00432,-0.0114 0.013574,-0.0114 z m -0.7982117,0.90943 0.1995528,3.06829 h 2.3973504 l 0.199553,-3.06829 z m 0.6991139,0.40899 h 0.199553 v 2.04583 h -0.199553 z m 0.5991114,0 h 0.2000053 v 2.04583 H 2.9996856 Z m 0.5991114,0 h 0.2000054 v 2.04583 H 3.598797 Z"
       id="path822"
       inkscape:connector-curvature="0" />
  </g>
</svg>
