<?xml version="1.0" encoding="UTF-8" standalone="no"?>
<svg
   xmlns:dc="http://purl.org/dc/elements/1.1/"
   xmlns:cc="http://creativecommons.org/ns#"
   xmlns:rdf="http://www.w3.org/1999/02/22-rdf-syntax-ns#"
   xmlns:svg="http://www.w3.org/2000/svg"
   xmlns="http://www.w3.org/2000/svg"
   xmlns:sodipodi="http://sodipodi.sourceforge.net/DTD/sodipodi-0.dtd"
   xmlns:inkscape="http://www.inkscape.org/namespaces/inkscape"
   viewBox="0 0 24 24"
   version="1.1"
   id="svg4"
   sodipodi:docname="ic_labels.svg"
   inkscape:export-filename="D:\Temp\ic_labels.png"
   inkscape:export-xdpi="192"
   inkscape:export-ydpi="192"
   inkscape:version="0.92.4 (5da689c313, 2019-01-14)">
  <metadata
     id="metadata10">
    <rdf:RDF>
      <cc:Work
         rdf:about="">
        <dc:format>image/svg+xml</dc:format>
        <dc:type
           rdf:resource="http://purl.org/dc/dcmitype/StillImage" />
        <dc:title></dc:title>
      </cc:Work>
    </rdf:RDF>
  </metadata>
  <defs
     id="defs8" />
  <sodipodi:namedview
     pagecolor="#ffffff"
     bordercolor="#666666"
     borderopacity="1"
     objecttolerance="10"
     gridtolerance="10"
     guidetolerance="10"
     inkscape:pageopacity="0"
     inkscape:pageshadow="2"
     inkscape:window-width="1920"
     inkscape:window-height="1013"
     id="namedview6"
     showgrid="true"
     inkscape:pagecheckerboard="true"
     inkscape:zoom="32"
     inkscape:cx="12.876216"
     inkscape:cy="12.809584"
     inkscape:window-x="-9"
     inkscape:window-y="-9"
     inkscape:window-maximized="1"
     inkscape:current-layer="svg4"
     inkscape:snap-grids="true">
    <inkscape:grid
       type="xygrid"
       id="grid824" />
    <inkscape:grid
       type="xygrid"
       id="grid4529" />
  </sodipodi:namedview>
  <path
     style="opacity:1;fill:#ffffff;fill-opacity:1;stroke:none;stroke-width:2.0999999;stroke-linecap:square;stroke-linejoin:miter;stroke-miterlimit:4;stroke-dasharray:none;stroke-dashoffset:0;stroke-opacity:1;paint-order:markers stroke fill"
     d="M 2 7.7363281 L 2 14.056641 L 22 14.056641 L 22 7.7363281 L 2 7.7363281 z M 16.59375 8.9980469 C 16.759545 8.9980469 16.908732 9.0082465 17.041016 9.0273438 C 17.175063 9.0447049 17.299228 9.0681424 17.412109 9.0976562 C 17.530283 9.1306424 17.637178 9.1673177 17.732422 9.2089844 C 17.82943 9.2489149 17.914013 9.2855903 17.986328 9.3203125 L 17.986328 10.261719 L 17.869141 10.261719 C 17.819755 10.220052 17.757483 10.170573 17.681641 10.113281 C 17.607562 10.05599 17.522978 9.9989149 17.427734 9.9433594 C 17.330727 9.8878038 17.226163 9.8409288 17.113281 9.8027344 C 17.000399 9.7645399 16.878756 9.7460938 16.75 9.7460938 C 16.607134 9.7460938 16.472506 9.7673611 16.34375 9.8125 C 16.214994 9.8559028 16.095682 9.9288194 15.986328 10.03125 C 15.882265 10.130208 15.797682 10.262587 15.732422 10.425781 C 15.668926 10.588976 15.636719 10.786892 15.636719 11.019531 C 15.636719 11.262587 15.671447 11.465712 15.740234 11.628906 C 15.810786 11.792101 15.89808 11.919922 16.003906 12.013672 C 16.111497 12.109158 16.230998 12.177083 16.363281 12.21875 C 16.495565 12.258681 16.627104 12.279297 16.755859 12.279297 C 16.879324 12.279297 17.001157 12.261068 17.121094 12.224609 C 17.242794 12.188151 17.354732 12.138672 17.457031 12.076172 C 17.543456 12.025825 17.623187 11.971354 17.697266 11.914062 C 17.771344 11.856771 17.833237 11.807292 17.880859 11.765625 L 17.986328 11.765625 L 17.986328 12.693359 C 17.887557 12.736762 17.793078 12.778212 17.703125 12.816406 C 17.613172 12.854601 17.518693 12.886285 17.419922 12.914062 C 17.291166 12.950521 17.169522 12.97895 17.056641 12.998047 C 16.943759 13.017144 16.78934 13.027344 16.591797 13.027344 C 16.29901 13.027344 16.02799 12.983507 15.779297 12.898438 C 15.532368 12.813368 15.32072 12.687934 15.142578 12.519531 C 14.964437 12.351128 14.825334 12.140408 14.726562 11.888672 C 14.629555 11.636936 14.580078 11.345486 14.580078 11.015625 C 14.580078 10.708333 14.627223 10.429688 14.720703 10.179688 C 14.814183 9.9296875 14.950765 9.7159288 15.128906 9.5371094 C 15.299993 9.3652344 15.511452 9.2324219 15.763672 9.1386719 C 16.017656 9.0449219 16.293908 8.9980469 16.59375 8.9980469 z M 7.4882812 9.0742188 L 8.65625 9.0742188 L 10.111328 12.951172 L 9.0625 12.951172 L 8.7890625 12.167969 L 7.328125 12.167969 L 7.0566406 12.951172 L 6.0332031 12.951172 L 7.4882812 9.0742188 z M 10.683594 9.0742188 L 12.212891 9.0742188 C 12.530371 9.0742188 12.76181 9.0846354 12.908203 9.1054688 C 13.056361 9.1263021 13.203026 9.1710069 13.347656 9.2421875 C 13.497577 9.3168403 13.609326 9.4181858 13.681641 9.5449219 C 13.755719 9.6699219 13.792969 9.813151 13.792969 9.9746094 C 13.792969 10.162109 13.74116 10.328559 13.640625 10.472656 C 13.54009 10.615017 13.398277 10.724826 13.214844 10.804688 L 13.214844 10.826172 C 13.472355 10.876519 13.676251 10.980686 13.826172 11.138672 C 13.977857 11.296658 14.054687 11.504991 14.054688 11.763672 C 14.054688 11.951172 14.015106 12.118056 13.9375 12.265625 C 13.861658 12.413194 13.757094 12.53559 13.623047 12.632812 C 13.467834 12.747396 13.296336 12.830295 13.109375 12.878906 C 12.924178 12.927517 12.690029 12.951172 12.404297 12.951172 L 10.683594 12.951172 L 10.683594 9.0742188 z M 11.695312 9.7851562 L 11.695312 10.605469 L 11.853516 10.605469 C 12.014019 10.605469 12.15079 10.602865 12.263672 10.597656 C 12.376554 10.592448 12.46599 10.574436 12.53125 10.544922 C 12.622966 10.504991 12.682717 10.453125 12.710938 10.390625 C 12.739158 10.326389 12.751953 10.253255 12.751953 10.169922 C 12.751953 10.105686 12.736637 10.040799 12.703125 9.9765625 C 12.671377 9.9123264 12.614148 9.8652344 12.53125 9.8339844 C 12.457171 9.8062066 12.363071 9.7907986 12.251953 9.7890625 C 12.142599 9.7855903 11.988369 9.7851562 11.789062 9.7851562 L 11.695312 9.7851562 z M 8.0585938 10.066406 L 7.5742188 11.457031 L 8.5429688 11.457031 L 8.0585938 10.066406 z M 11.695312 11.273438 L 11.695312 12.240234 L 11.767578 12.240234 C 12.05331 12.240234 12.259348 12.240017 12.382812 12.238281 C 12.506277 12.236545 12.618593 12.213325 12.722656 12.169922 C 12.828483 12.126519 12.902603 12.069227 12.941406 11.998047 C 12.981973 11.92513 13.001953 11.841797 13.001953 11.748047 C 13.001953 11.624783 12.97712 11.530816 12.927734 11.464844 C 12.880112 11.397135 12.79805 11.345486 12.681641 11.3125 C 12.602271 11.289931 12.492854 11.27908 12.353516 11.277344 C 12.214177 11.275608 12.067701 11.273438 11.916016 11.273438 L 11.695312 11.273438 z "
     id="rect818" />
</svg>
