<?xml version="1.0" encoding="UTF-8" standalone="no"?>
<svg
   xmlns:dc="http://purl.org/dc/elements/1.1/"
   xmlns:cc="http://creativecommons.org/ns#"
   xmlns:rdf="http://www.w3.org/1999/02/22-rdf-syntax-ns#"
   xmlns:svg="http://www.w3.org/2000/svg"
   xmlns="http://www.w3.org/2000/svg"
   xmlns:sodipodi="http://sodipodi.sourceforge.net/DTD/sodipodi-0.dtd"
   xmlns:inkscape="http://www.inkscape.org/namespaces/inkscape"
   viewBox="0 0 24 24"
   version="1.1"
   id="svg4"
   sodipodi:docname="ic_spherical_white.svg"
   inkscape:export-filename="D:\Temp\ic_spherical.png"
   inkscape:export-xdpi="384"
   inkscape:export-ydpi="384"
   inkscape:version="0.92.4 (5da689c313, 2019-01-14)">
  <metadata
     id="metadata10">
    <rdf:RDF>
      <cc:Work
         rdf:about="">
        <dc:format>image/svg+xml</dc:format>
        <dc:type
           rdf:resource="http://purl.org/dc/dcmitype/StillImage" />
        <dc:title></dc:title>
      </cc:Work>
    </rdf:RDF>
  </metadata>
  <defs
     id="defs8" />
  <sodipodi:namedview
     pagecolor="#ffffff"
     bordercolor="#666666"
     borderopacity="1"
     objecttolerance="10"
     gridtolerance="10"
     guidetolerance="10"
     inkscape:pageopacity="0"
     inkscape:pageshadow="2"
     inkscape:window-width="1920"
     inkscape:window-height="1013"
     id="namedview6"
     showgrid="true"
     inkscape:pagecheckerboard="true"
     inkscape:zoom="22.627417"
     inkscape:cx="18.362484"
     inkscape:cy="10.430907"
     inkscape:window-x="-9"
     inkscape:window-y="-9"
     inkscape:window-maximized="1"
     inkscape:current-layer="svg4">
    <inkscape:grid
       type="xygrid"
       id="grid839" />
  </sodipodi:namedview>
  <path
     inkscape:connector-curvature="0"
     style="opacity:1;fill:none;fill-opacity:1;stroke:#000000;stroke-width:0.52240819;stroke-miterlimit:4;stroke-dasharray:2.08963266, 0.52240816;stroke-dashoffset:0;stroke-opacity:1"
     d="M 12.5,0.26120382 A 2.7387959,11.738796 0 0 1 15.238796,12 2.7387959,11.738796 0 0 1 12.5,23.738796"
     id="path841-3-1-0" />
  <path
     inkscape:connector-curvature="0"
     style="opacity:1;fill:none;fill-opacity:1;stroke:#000000;stroke-width:0.52240819;stroke-miterlimit:4;stroke-dasharray:none;stroke-dashoffset:0;stroke-opacity:1"
     d="m 12.5,23.738796 v 0 A 2.738796,11.738796 0 0 1 9.7612041,12 2.738796,11.738796 0 0 1 12.5,0.26120392"
     id="path4633-6-9" />
  <path
     inkscape:connector-curvature="0"
     style="opacity:1;fill:none;fill-opacity:1;stroke:#000000;stroke-width:0.52240819;stroke-miterlimit:4;stroke-dasharray:2.08963266, 0.52240816;stroke-dashoffset:0;stroke-opacity:1"
     d="M 0.26120409,12.5 A 11.738796,2.738796 0 0 1 12,9.7612041 11.738796,2.738796 0 0 1 23.738796,12.5"
     id="path841-3-6" />
  <path
     inkscape:connector-curvature="0"
     style="opacity:1;fill:none;fill-opacity:1;stroke:#000000;stroke-width:0.52240819;stroke-miterlimit:4;stroke-dasharray:none;stroke-dashoffset:0;stroke-opacity:1"
     d="m 23.738796,12.5 v 0 A 11.738796,2.738796 0 0 1 12,15.238796 11.738796,2.738796 0 0 1 0.26120409,12.5"
     id="path4633-4" />
  <circle
     style="opacity:1;fill:none;fill-opacity:1;stroke:#ffffff;stroke-width:1.0104636;stroke-miterlimit:4;stroke-dasharray:none;stroke-opacity:1"
     id="path841"
     cx="12"
     cy="12"
     r="11.494768" />
  <path
     style="opacity:1;fill:none;fill-opacity:1;stroke:#ffffff;stroke-width:0.52240819;stroke-miterlimit:4;stroke-dasharray:none;stroke-dashoffset:0;stroke-opacity:1"
     d="M 23.738796 12 A 11.738796 2.738796 0 0 1 23.738796 12 L 23.738796 12 A 11.738796 2.738796 0 0 1 12 14.738796 A 11.738796 2.738796 0 0 1 0.26120377 12 "
     id="path4633" />
  <path
     style="opacity:1;fill:none;fill-opacity:1;stroke:#ffffff;stroke-width:0.52240819;stroke-miterlimit:4;stroke-dasharray:2.08963266, 0.52240816000000001;stroke-dashoffset:0;stroke-opacity:1"
     d="M 0.26120377 12 A 11.738796 2.738796 0 0 1 0.26120377 12 A 11.738796 2.738796 0 0 1 12 9.261204 A 11.738796 2.738796 0 0 1 23.738796 12 "
     id="path841-3" />
  <path
     inkscape:connector-curvature="0"
     style="opacity:1;fill:none;fill-opacity:1;stroke:#ffffff;stroke-width:0.52240819;stroke-miterlimit:4;stroke-dasharray:none;stroke-dashoffset:0;stroke-opacity:1"
     d="m 12,23.738796 v 0 A 2.738796,11.738796 0 0 1 9.261204,12 2.738796,11.738796 0 0 1 12,0.26120391"
     id="path4633-6" />
  <path
     inkscape:connector-curvature="0"
     style="opacity:1;fill:none;fill-opacity:1;stroke:#ffffff;stroke-width:0.52240819;stroke-miterlimit:4;stroke-dasharray:2.08963266, 0.52240816;stroke-dashoffset:0;stroke-opacity:1"
     d="M 12,0.26120391 A 2.738796,11.738796 0 0 1 14.738796,12 2.738796,11.738796 0 0 1 12,23.738796"
     id="path841-3-1" />
  <circle
     style="opacity:1;fill:none;fill-opacity:1;stroke:#000006;stroke-width:0.47308826;stroke-miterlimit:4;stroke-dasharray:none;stroke-opacity:1"
     id="path841-7"
     cx="12"
     cy="12"
     r="10.763455" />
</svg>
