<?xml version="1.0" encoding="UTF-8" standalone="no"?>
<svg
   xmlns:dc="http://purl.org/dc/elements/1.1/"
   xmlns:cc="http://creativecommons.org/ns#"
   xmlns:rdf="http://www.w3.org/1999/02/22-rdf-syntax-ns#"
   xmlns:svg="http://www.w3.org/2000/svg"
   xmlns="http://www.w3.org/2000/svg"
   xmlns:xlink="http://www.w3.org/1999/xlink"
   xmlns:sodipodi="http://sodipodi.sourceforge.net/DTD/sodipodi-0.dtd"
   xmlns:inkscape="http://www.inkscape.org/namespaces/inkscape"
   viewBox="0 0 800 800.00002"
   version="1.1"
   id="svg6"
   sodipodi:docname="ic_sdcard.svg"
   width="800"
   height="800"
   style="clip-rule:evenodd;fill-rule:evenodd;image-rendering:optimizeQuality;shape-rendering:geometricPrecision;text-rendering:geometricPrecision"
   inkscape:version="0.92.4 (5da689c313, 2019-01-14)"
   inkscape:export-filename="D:\Projects\HomeProjects\MediaBrowserAndroid\design\ic_sdcard.png"
   inkscape:export-xdpi="61.439999"
   inkscape:export-ydpi="61.439999">
  <metadata
     id="metadata12">
    <rdf:RDF>
      <cc:Work
         rdf:about="">
        <dc:format>image/svg+xml</dc:format>
        <dc:type
           rdf:resource="http://purl.org/dc/dcmitype/StillImage" />
        <dc:title></dc:title>
      </cc:Work>
    </rdf:RDF>
  </metadata>
  <defs
     id="defs10">
    <linearGradient
       id="linearGradient842"
       inkscape:collect="always">
      <stop
         id="stop847"
         offset="0"
         style="stop-color:#ffffff;stop-opacity:1" />
      <stop
         id="stop849"
         offset="1"
         style="stop-color:#f4cf16;stop-opacity:1" />
    </linearGradient>
    <linearGradient
       id="linearGradient869"
       inkscape:collect="always">
      <stop
         id="stop865"
         offset="0"
         style="stop-color:#fffffd;stop-opacity:1" />
      <stop
         id="stop867"
         offset="1"
         style="stop-color:#606060;stop-opacity:0.98039216" />
    </linearGradient>
    <linearGradient
       inkscape:collect="always"
       id="linearGradient848-0">
      <stop
         style="stop-color:#202020;stop-opacity:1"
         offset="0"
         id="stop844" />
      <stop
         style="stop-color:#808080;stop-opacity:1"
         offset="1"
         id="stop846" />
    </linearGradient>
    <linearGradient
       inkscape:collect="always"
       xlink:href="#linearGradient848-0"
       id="linearGradient850"
       x1="460"
       y1="380"
       x2="180.00002"
       y2="120"
       gradientUnits="userSpaceOnUse" />
    <radialGradient
       inkscape:collect="always"
       xlink:href="#linearGradient869"
       id="radialGradient858"
       cx="212.52274"
       cy="183.40816"
       fx="212.52274"
       fy="183.40816"
       r="201.5"
       gradientTransform="matrix(2.1836228,-7.9217075e-8,6.481397e-8,1.7866005,-284.06949,-207.67709)"
       gradientUnits="userSpaceOnUse" />
    <linearGradient
       inkscape:collect="always"
       xlink:href="#linearGradient842"
       id="linearGradient844"
       x1="290.63904"
       y1="94.903725"
       x2="420"
       y2="200"
       gradientUnits="userSpaceOnUse" />
  </defs>
  <sodipodi:namedview
     pagecolor="#ffffff"
     bordercolor="#666666"
     borderopacity="1"
     objecttolerance="10"
     gridtolerance="10"
     guidetolerance="10"
     inkscape:pageopacity="0"
     inkscape:pageshadow="2"
     inkscape:window-width="1920"
     inkscape:window-height="1013"
     id="namedview8"
     showgrid="true"
     inkscape:pagecheckerboard="true"
     inkscape:zoom="0.65172406"
     inkscape:cx="-226.46726"
     inkscape:cy="684.21396"
     inkscape:window-x="-9"
     inkscape:window-y="-9"
     inkscape:window-maximized="1"
     inkscape:current-layer="svg6">
    <inkscape:grid
       type="xygrid"
       id="grid822"
       spacingx="20"
       spacingy="20"
       enabled="true"
       visible="true"
       empspacing="5" />
  </sodipodi:namedview>
  <path
     d="m 250.91,141.89001 h 300.55 c 12.95,0 23.54,10.61001 23.54,23.54001 v 465.02999 c 0,12.93 -10.61,23.54 -23.54,23.54 H 227.37 c -36.87,-0.54 -45.36,-9.9 -45.36,-42.71 v -120.64 l 21.06,-25.28 v -45.29 H 182 v -65.3 l 45.37,-43.18 V 165.43002 c 0,-12.95001 10.6,-23.54001 23.54,-23.54001 z"
     id="path2"
     inkscape:connector-curvature="0"
     style="fill:url(#linearGradient850);fill-opacity:1;stroke:url(#radialGradient858);stroke-opacity:1;stroke-width:10;stroke-miterlimit:4;stroke-dasharray:none" />
  <path
     d="m 265.32,181.74001 h 25.52 c 1.27,0 2.31,1.04 2.31,2.3 v 86.41 c 0,1.27 -1.04,2.3 -2.31,2.3 h -25.52 a 2.3,2.3 0 0 1 -2.3,-2.3 v -86.41 c 0,-1.26 1.03,-2.3 2.3,-2.3 z m 246.83,0 h 25.52 c 1.27,0 2.31,1.04 2.31,2.3 v 86.41 c 0,1.27 -1.04,2.3 -2.31,2.3 h -25.52 c -1.27,0 -2.31,-1.03 -2.31,-2.3 v -86.41 c 0,-1.26 1.04,-2.3 2.31,-2.3 z m -49.37,0 h 25.53 c 1.26,0 2.3,1.04 2.3,2.3 v 86.41 c 0,1.27 -1.04,2.3 -2.3,2.3 h -25.53 a 2.3,2.3 0 0 1 -2.3,-2.3 v -86.41 c 0,-1.26 1.03,-2.3 2.3,-2.3 z m -49.36,0 h 25.52 c 1.27,0 2.31,1.04 2.31,2.3 v 86.41 c 0,1.27 -1.04,2.3 -2.31,2.3 h -25.52 c -1.27,0 -2.31,-1.03 -2.31,-2.3 v -86.41 c 0,-1.26 1.04,-2.3 2.31,-2.3 z m -49.37,0 h 25.53 c 1.26,0 2.3,1.04 2.3,2.3 v 86.41 c 0,1.27 -1.04,2.3 -2.3,2.3 h -25.53 c -1.26,0 -2.3,-1.03 -2.3,-2.3 v -86.41 c 0,-1.26 1.04,-2.3 2.3,-2.3 z m -49.36,0 h 25.52 c 1.27,0 2.3,1.04 2.3,2.3 v 86.41 a 2.3,2.3 0 0 1 -2.3,2.3 h -25.52 c -1.27,0 -2.31,-1.03 -2.31,-2.3 v -86.41 c 0,-1.26 1.04,-2.3 2.31,-2.3 z"
     id="path4"
     inkscape:connector-curvature="0"
     style="fill:url(#linearGradient844);fill-opacity:1" />
  <g
     id="layer1"
     transform="matrix(0.33646751,0,0,0.27455045,258.44741,434.99442)"
     style="fill:#fefffe;fill-opacity:1;stroke-width:3.2901628">
    <g
       id="g25789"
       transform="translate(3.541442,3.551494)"
       style="fill:#fefffe;fill-opacity:1;stroke-width:3.2901628">
      <path
         id="path13557"
         style="fill:#fefffe;fill-opacity:1;fill-rule:nonzero;stroke:none;stroke-width:3.2901628"
         d="m 203.25824,425.35124 c 0,12.57906 -18.9547,13.61298 -73.23404,12.57906 -84.434505,-1.37852 -155.256117,-9.82204 -155.256117,-9.82204 l -33.136244,91.32721 c 0,0 80.385116,5.51405 166.163691,5.51405 122.34389,0 223.14837,4.82487 241.58612,-75.99111 13.09597,-57.03638 -36.70318,-83.91747 -95.97965,-101.49369 -39.97716,-11.88974 -112.86655,-28.25975 -112.86655,-42.56191 0,-18.26542 48.93755,-17.74853 82.88367,-18.78231 37.0478,-1.03392 180.58649,-1.20622 180.58649,-1.20622 l 18.26542,-51.69461 c 0,0 -103.21689,-2.75703 -205.74452,2.24013 -147.674251,7.40946 -175.244695,40.14948 -178.691007,71.51085 -4.480205,40.66636 50.316075,68.92611 83.572937,81.67746 31.70603,12.06203 81.8498,21.02244 81.8498,36.70313"
         inkscape:connector-curvature="0" />
      <path
         id="path13559"
         style="fill:#fefffe;fill-opacity:1;fill-rule:nonzero;stroke:none;stroke-width:3.2901628"
         d="m 597.51575,328.50998 c -0.68928,-1.37852 -1.55084,-2.75703 -2.41242,-4.13554 l 178.00175,-44.80191 c 28.25971,13.78513 51.86692,31.53366 64.10131,54.27921 11.02818,19.98865 8.78808,40.6665 -3.96326,60.82732 C 731.40477,521.15858 466.55608,520.29695 370.92107,524.60493 l 41.52799,-117.00222 v 0 c 25.33036,-0.86148 61.86121,-4.48013 83.74526,-8.78797 21.71173,-4.30798 41.18337,-9.99433 57.03638,-16.7146 15.85301,-6.72028 28.25971,-14.30217 36.18622,-22.4011 7.75419,-8.09878 11.54512,-16.36987 9.99429,-24.98568 -0.34463,-2.0677 -1.0339,-4.13554 -1.89546,-6.20338"
         inkscape:connector-curvature="0" />
      <path
         id="path13561"
         style="fill:#fefffe;fill-opacity:1;fill-rule:nonzero;stroke:none;stroke-width:3.2901628"
         d="m 735.36802,264.06414 c -10.33892,-4.30798 -24.6411,-9.64974 -35.15233,-12.40676 l -130.2704,52.55624 c 3.79093,1.8954 9.47734,6.20324 12.40671,8.09878 0.86156,0.68919 1.55083,1.20622 2.4124,1.72311 l 150.60362,-49.97137"
         inkscape:connector-curvature="0" />
      <path
         id="path13563"
         style="fill:#fefffe;fill-opacity:1;fill-rule:nonzero;stroke:none;stroke-width:3.2901628"
         d="m 628.5325,239.59535 c -21.53941,-3.10176 -39.4602,-4.48028 -49.97145,-4.82487 -41.52799,-1.03392 -57.89795,-1.89541 -104.07847,-1.72311 l -18.43773,52.03921 v 0 c 11.37281,0.3446 16.54227,-0.1723 35.66927,1.72311 17.57617,1.72325 33.77381,4.30798 48.07598,8.09879 l 88.7424,-55.31313"
         inkscape:connector-curvature="0" />
      <path
         id="path13565"
         style="fill:#fefffe;fill-opacity:1;fill-rule:nonzero;stroke:none;stroke-width:3.2901628"
         d="m 793.26597,486.52315 h -12.4067 l -5.34178,38.59867 h -6.20335 l 5.51409,-38.59867 h -12.4067 l 0.86157,-5.51405 h 30.84445 l -0.86158,5.51405"
         inkscape:connector-curvature="0" />
      <path
         id="path13567"
         style="fill:#fefffe;fill-opacity:1;fill-rule:nonzero;stroke:none;stroke-width:3.2901628"
         d="m 838.92954,525.12182 h -5.85872 v -33.4292 0 l -17.74848,33.4292 -7.58188,-33.7738 h -0.17231 l -10.85587,33.7738 h -5.85872 l 14.6468,-44.11272 h 4.99715 l 6.7203,29.81055 15.85301,-29.81055 h 5.85872 v 44.11272"
         inkscape:connector-curvature="0" />
    </g>
  </g>
</svg>
